<?xml version="1.0" standalone="no"?>
<!DOCTYPE svg PUBLIC "-//W3C//DTD SVG 20010904//EN"
 "http://www.w3.org/TR/2001/REC-SVG-20010904/DTD/svg10.dtd">
<svg version="1.0" xmlns="http://www.w3.org/2000/svg"
 width="1582.000000pt" height="1582.000000pt" viewBox="0 0 1582.000000 1582.000000"
 preserveAspectRatio="xMidYMid meet">
<metadata>
Created by potrace 1.14, written by Peter Selinger 2001-2017
</metadata>
<g transform="translate(0.000000,1582.000000) scale(0.100000,-0.100000)"
fill="#000000" stroke="none">
<path d="M0 11911 c0 -694 3 -880 13 -883 6 -2 668 -3 1470 -3 1198 1 1457 -1
1453 -12 -3 -7 -1 -13 4 -13 5 0 5 -12 0 -29 -4 -15 -4 -34 0 -42 5 -7 6 -17
3 -22 -8 -14 -9 -147 -1 -147 4 0 3 -13 -2 -29 -4 -15 -4 -34 0 -42 5 -7 6
-17 3 -22 -8 -14 -9 -147 -1 -147 4 0 3 -13 -2 -29 -4 -15 -4 -34 0 -42 5 -7
6 -17 3 -22 -9 -15 -9 -87 1 -87 5 0 4 -6 -1 -12 -6 -7 -9 -22 -7 -33 7 -35 7
-93 0 -104 -4 -6 -3 -11 3 -11 6 0 8 -7 4 -16 -8 -22 -10 -204 -1 -204 4 0 3
-13 -2 -29 -4 -15 -4 -34 0 -42 5 -7 6 -17 3 -22 -8 -13 -9 -227 -1 -227 4 0
3 -13 -2 -29 -4 -15 -4 -34 0 -42 5 -7 6 -17 3 -22 -10 -16 -9 -167 1 -167 5
0 4 -6 -1 -12 -6 -7 -9 -22 -7 -33 7 -35 7 -93 0 -104 -4 -6 -2 -11 4 -11 6 0
8 -5 4 -12 -9 -15 -11 -128 -2 -128 4 0 3 -13 -2 -29 -4 -15 -4 -34 0 -42 5
-7 6 -17 3 -22 -8 -14 -9 -147 -1 -147 4 0 3 -13 -2 -29 -4 -15 -4 -34 0 -42
5 -7 6 -17 3 -22 -8 -14 -9 -147 -1 -147 4 0 3 -13 -2 -29 -4 -15 -4 -34 0
-42 5 -7 6 -17 3 -22 -9 -15 -9 -87 1 -87 5 0 4 -6 -1 -12 -6 -7 -9 -22 -7
-33 7 -35 7 -93 0 -104 -4 -6 -2 -11 4 -11 6 0 8 -5 4 -12 -9 -15 -11 -128 -2
-128 4 0 3 -13 -2 -29 -4 -15 -4 -34 0 -42 5 -7 6 -17 3 -22 -8 -14 -9 -147
-1 -147 4 0 3 -13 -2 -29 -4 -15 -4 -34 0 -42 5 -7 6 -17 3 -22 -8 -14 -9
-147 -1 -147 4 0 3 -13 -2 -29 -4 -15 -4 -34 0 -42 5 -7 6 -17 3 -23 -9 -13
-9 -66 -1 -66 4 0 3 -13 -2 -29 -4 -15 -4 -34 0 -42 5 -7 6 -17 3 -22 -8 -14
-9 -147 -1 -147 4 0 3 -13 -2 -29 -4 -15 -4 -34 0 -42 5 -7 6 -17 3 -22 -8
-14 -9 -147 -1 -147 4 0 3 -13 -2 -29 -4 -15 -4 -34 0 -42 5 -7 6 -17 3 -23
-9 -13 -9 -66 -1 -66 4 0 3 -13 -2 -29 -4 -15 -4 -34 0 -42 5 -7 6 -17 3 -22
-8 -14 -9 -147 -1 -147 4 0 3 -13 -2 -29 -4 -15 -4 -34 0 -42 5 -7 6 -17 3
-22 -8 -14 -9 -147 -1 -147 4 0 3 -13 -2 -29 -4 -15 -4 -34 0 -42 5 -7 6 -17
3 -23 -9 -13 -9 -66 -1 -66 4 0 3 -13 -2 -29 -4 -15 -4 -34 0 -42 5 -7 6 -17
3 -22 -8 -14 -9 -147 -1 -147 4 0 3 -13 -2 -29 -4 -15 -4 -34 0 -42 5 -7 6
-17 3 -22 -8 -14 -9 -147 -1 -147 4 0 3 -13 -2 -29 -4 -15 -4 -34 0 -42 5 -7
6 -17 3 -22 -8 -13 -9 -147 -1 -147 4 0 3 -13 -2 -29 -4 -15 -4 -34 0 -42 5
-7 6 -17 3 -22 -8 -13 -9 -227 -1 -227 4 0 3 -13 -2 -29 -4 -15 -4 -34 0 -42
5 -7 6 -17 3 -22 -10 -16 -9 -167 1 -167 5 0 4 -6 -1 -12 -6 -7 -9 -22 -7 -33
7 -35 7 -93 0 -104 -4 -6 -2 -11 4 -11 6 0 8 -5 4 -12 -9 -15 -11 -128 -2
-128 4 0 3 -13 -2 -29 -4 -15 -4 -34 0 -42 5 -7 6 -17 3 -22 -8 -14 -9 -147
-1 -147 4 0 3 -13 -2 -29 -4 -15 -4 -34 0 -42 5 -7 6 -17 3 -22 -8 -14 -9
-147 -1 -147 4 0 3 -13 -2 -29 -4 -15 -4 -34 0 -42 5 -7 6 -17 3 -22 -9 -15
-9 -87 1 -87 5 0 4 -6 -1 -12 -6 -7 -9 -22 -7 -33 7 -35 7 -93 0 -104 -4 -6
-3 -11 3 -11 6 0 8 -7 4 -16 -8 -22 -10 -204 -1 -204 4 0 3 -13 -2 -29 -4 -15
-4 -34 0 -42 5 -7 6 -17 3 -22 -8 -13 -9 -227 -1 -227 4 0 3 -13 -2 -29 -4
-15 -4 -34 0 -42 5 -7 6 -18 3 -23 -4 -5 -6 -23 -6 -38 1 -15 2 -39 2 -53 1
-19 6 -25 25 -25 14 0 26 7 29 17 6 18 29 58 95 168 20 33 36 63 34 68 -1 4 2
7 8 7 5 0 10 5 10 10 0 6 11 27 23 48 13 20 39 64 57 97 18 33 36 62 39 65 4
3 12 16 18 30 7 14 23 43 35 65 51 89 192 332 207 355 18 29 28 46 65 117 16
29 32 53 38 53 5 0 6 4 3 10 -3 5 -1 10 4 10 6 0 11 9 11 19 0 11 3 21 8 23 6
2 120 196 166 283 6 11 13 22 16 25 5 5 18 27 70 120 17 30 40 71 51 90 12 19
32 55 46 80 13 25 40 70 58 100 19 30 34 61 35 68 0 6 3 12 8 12 4 0 18 21 32
48 13 26 35 64 48 85 13 22 35 59 49 84 13 25 38 66 53 91 16 26 43 74 61 107
17 33 34 62 38 65 3 3 15 23 26 45 11 22 23 42 26 45 3 3 8 10 10 15 4 10 81
146 99 175 10 16 58 99 93 160 10 19 50 87 87 151 38 63 76 132 86 152 10 20
21 37 26 37 4 0 8 5 8 11 0 6 22 48 49 93 91 152 124 226 99 226 -5 0 -4 9 2
20 8 14 8 20 0 20 -8 0 -8 6 0 20 8 14 8 20 0 20 -8 0 -8 6 0 20 6 11 7 20 3
20 -4 0 -6 978 -3 2172 l5 2173 1280 2 c704 0 1291 2 1305 2 20 1 30 12 49 51
14 28 27 50 30 50 4 0 15 20 26 45 11 25 23 45 27 45 5 0 8 6 8 14 0 8 3 16 8
18 4 2 18 25 32 53 14 27 35 64 47 81 12 18 19 35 15 38 -3 3 0 6 6 6 7 0 12
6 12 14 0 8 3 16 7 18 5 2 17 21 28 43 11 22 26 46 32 53 7 7 13 20 13 28 0 8
3 14 8 14 4 0 18 23 31 50 14 28 29 50 34 50 4 0 5 5 2 10 -3 6 -2 10 3 10 5
0 12 8 15 18 6 18 12 29 187 329 63 109 117 202 119 208 2 5 12 21 21 35 15
21 39 64 94 165 6 11 13 22 16 25 3 3 10 14 16 25 27 50 63 113 82 145 12 19
26 45 31 57 5 11 15 24 20 28 6 3 11 13 11 21 0 12 -563 14 -4305 14 l-4305 0
0 -879z"/>
<path d="M13783 10908 l0 -1882 -24 -6 c-13 -3 -49 -4 -79 -3 -74 4 -72 4
-100 0 -14 -2 -33 1 -44 6 -11 5 -16 5 -13 0 4 -6 -30 -8 -81 -6 -48 2 -94 4
-102 3 -130 -5 -288 -4 -297 3 -7 5 -13 6 -13 1 0 -5 -37 -8 -82 -6 -46 1 -87
2 -93 2 -28 0 -182 0 -195 0 -8 0 -26 -1 -40 -3 -14 -2 -33 1 -44 6 -11 5 -16
5 -13 0 4 -6 -30 -8 -81 -6 -48 2 -94 4 -102 3 -14 0 -344 0 -365 0 -5 0 -21
-1 -35 -3 -14 -2 -33 1 -44 6 -11 5 -16 5 -13 0 4 -6 -30 -8 -81 -6 -48 2 -94
4 -102 3 -124 -5 -269 -4 -284 3 -11 5 -16 5 -13 0 4 -6 -30 -8 -81 -6 -48 2
-91 4 -97 3 -5 0 -32 -1 -60 -3 -27 -2 -58 1 -69 6 -11 5 -16 5 -13 0 7 -11
-104 -10 -121 1 -7 4 -12 4 -12 -1 0 -10 -171 -10 -188 1 -6 4 -12 4 -12 -1 0
-4 -37 -7 -82 -5 -46 1 -87 2 -93 2 -28 0 -182 0 -195 0 -8 0 -26 -1 -40 -3
-14 -2 -33 1 -44 6 -11 5 -16 5 -13 0 4 -6 -30 -8 -81 -6 -48 2 -91 4 -97 3
-100 -4 -205 -3 -205 2 0 4 -6 5 -13 2 -11 -4 -13 170 -13 946 1 523 -1 958
-4 966 -4 10 -14 -2 -30 -35 -13 -28 -27 -51 -32 -51 -4 0 -8 -9 -8 -19 0 -11
-4 -21 -8 -23 -10 -4 -172 -285 -172 -298 0 -6 -4 -10 -10 -10 -5 0 -10 -6
-10 -14 0 -7 -7 -19 -15 -26 -8 -7 -12 -16 -9 -21 3 -5 0 -9 -5 -9 -6 0 -11
-5 -11 -10 0 -6 -16 -36 -35 -66 -19 -30 -35 -56 -35 -58 0 -4 -42 -76 -124
-216 -15 -25 -32 -57 -39 -72 -6 -16 -15 -28 -19 -28 -4 0 -8 -4 -8 -9 0 -5
-27 -55 -60 -110 -33 -56 -60 -106 -60 -111 0 -6 -4 -10 -9 -10 -5 0 -12 -11
-15 -24 -3 -14 -12 -31 -19 -38 -7 -7 -20 -26 -28 -43 -38 -74 -172 -301 -183
-307 -6 -4 -7 -8 -3 -8 8 0 6 -4 -39 -75 -13 -22 -32 -56 -42 -75 -9 -19 -20
-37 -23 -40 -4 -3 -19 -30 -35 -60 -16 -30 -32 -57 -35 -60 -3 -3 -23 -36 -44
-75 -20 -38 -41 -74 -45 -80 -4 -5 -17 -27 -29 -47 -34 -60 -62 -111 -82 -143
-10 -16 -30 -52 -44 -80 -15 -27 -33 -57 -41 -66 -8 -8 -14 -19 -14 -23 0 -4
-9 -20 -20 -36 -11 -15 -17 -30 -13 -34 3 -3 2 -6 -3 -6 -5 0 -22 -26 -39 -58
-16 -31 -33 -59 -36 -62 -4 -3 -9 -15 -13 -27 -4 -13 -12 -23 -17 -23 -5 0 -9
-5 -9 -11 0 -6 -29 -60 -65 -120 -36 -61 -65 -115 -65 -120 0 -5 -4 -9 -10 -9
-5 0 -10 -4 -10 -9 0 -6 -17 -38 -37 -73 -21 -35 -44 -75 -53 -90 -79 -141
-105 -184 -114 -190 -7 -5 -7 -8 -1 -8 7 0 7 -3 0 -8 -5 -4 -23 -33 -40 -64
-16 -32 -34 -58 -39 -58 -5 0 -6 -3 -3 -7 4 -3 0 -14 -8 -23 -18 -20 -27 -120
-11 -120 8 0 8 -3 1 -8 -12 -8 -13 -370 -1 -390 4 -6 3 -12 -1 -12 -10 0 -10
-371 1 -388 4 -7 3 -12 -2 -12 -12 0 -9 -143 3 -152 7 -5 7 -8 0 -8 -12 0 -13
-369 -1 -388 4 -7 3 -12 -1 -12 -10 0 -10 -371 1 -388 4 -7 3 -12 -2 -12 -12
0 -9 -143 3 -152 7 -5 7 -8 0 -8 -12 0 -13 -369 -1 -388 4 -7 3 -12 -1 -12
-10 0 -10 -371 1 -388 4 -7 3 -12 -2 -12 -12 0 -9 -143 3 -152 7 -5 7 -8 0 -8
-12 0 -13 -369 -1 -388 4 -7 3 -12 -1 -12 -10 0 -10 -371 1 -388 4 -7 3 -12
-2 -12 -12 0 -9 -143 3 -152 7 -5 7 -8 0 -8 -6 0 -10 -82 -10 -227 l1 -228
1019 0 1019 0 0 2048 0 2047 1935 -2 1934 -3 1 -2045 1 -2045 1018 -3 1017 -2
0 4880 0 4880 -1018 0 -1019 0 0 -1882z"/>
</g>
</svg>
